<svg width="21" height="19" viewBox="0 0 21 19" fill="none" xmlns="http://www.w3.org/2000/svg">
<path fill-rule="evenodd" clip-rule="evenodd" d="M2.03567 2.08478C2.03567 2.0058 2.07142 1.93004 2.13505 1.87419C2.19867 1.81834 2.28497 1.78696 2.37495 1.78696H13.9104C14.0004 1.78696 14.0867 1.81834 14.1503 1.87419C14.214 1.93004 14.2497 2.0058 14.2497 2.08478V11.3007C14.2497 11.5377 14.357 11.765 14.5478 11.9325C14.7387 12.1001 14.9976 12.1942 15.2676 12.1942C15.5375 12.1942 15.7964 12.1001 15.9873 11.9325C16.1782 11.765 16.2854 11.5377 16.2854 11.3007V2.08478C16.2854 1.53187 16.0352 1.00159 15.5898 0.610619C15.1444 0.219646 14.5403 0 13.9104 0H2.37495C1.74508 0 1.141 0.219646 0.695608 0.610619C0.250218 1.00159 0 1.53187 0 2.08478V15.7848C0 16.9356 1.06398 17.8696 2.37495 17.8696H6.67701C6.94696 17.8696 7.20585 17.7755 7.39673 17.6079C7.58761 17.4403 7.69485 17.2131 7.69485 16.9761C7.69485 16.7391 7.58761 16.5119 7.39673 16.3443C7.20585 16.1768 6.94696 16.0826 6.67701 16.0826H2.37495C2.28497 16.0826 2.19867 16.0513 2.13505 15.9954C2.07142 15.9395 2.03567 15.8638 2.03567 15.7848V2.08478ZM5.08919 4.76522C4.81924 4.76522 4.56035 4.85936 4.36947 5.02692C4.17858 5.19448 4.07135 5.42174 4.07135 5.6587C4.07135 5.89567 4.17858 6.12293 4.36947 6.29049C4.56035 6.45805 4.81924 6.55218 5.08919 6.55218H11.1962C11.4662 6.55218 11.725 6.45805 11.9159 6.29049C12.1068 6.12293 12.214 5.89567 12.214 5.6587C12.214 5.42174 12.1068 5.19448 11.9159 5.02692C11.725 4.85936 11.4662 4.76522 11.1962 4.76522H5.08919ZM4.07135 9.23262C4.07135 8.99565 4.17858 8.76839 4.36947 8.60083C4.56035 8.43327 4.81924 8.33914 5.08919 8.33914H7.80342C8.07337 8.33914 8.33226 8.43327 8.52314 8.60083C8.71402 8.76839 8.82125 8.99565 8.82125 9.23262C8.82125 9.46959 8.71402 9.69684 8.52314 9.8644C8.33226 10.032 8.07337 10.1261 7.80342 10.1261H5.08919C4.81924 10.1261 4.56035 10.032 4.36947 9.8644C4.17858 9.69684 4.07135 9.46959 4.07135 9.23262ZM20.05 13.4463C20.1457 13.3643 20.2221 13.2666 20.2748 13.1587C20.3275 13.0508 20.3554 12.9349 20.3571 12.8175C20.3587 12.7001 20.334 12.5836 20.2843 12.4746C20.2347 12.3656 20.1611 12.2663 20.0677 12.1823C19.9743 12.0983 19.863 12.0312 19.7401 11.985C19.6172 11.9388 19.4851 11.9142 19.3514 11.9128C19.2177 11.9113 19.085 11.933 18.9608 11.9766C18.8366 12.0202 18.7235 12.0848 18.6278 12.1668L13.164 16.851L11.2383 15.1534C11.0457 14.9953 10.7907 14.9089 10.5269 14.9125C10.2632 14.9162 10.0114 15.0095 9.82459 15.1729C9.63775 15.3363 9.53046 15.557 9.52531 15.7885C9.52017 16.02 9.61758 16.2441 9.79702 16.4138L12.4339 18.7369C12.623 18.9036 12.8795 18.9982 13.1475 19C13.4156 19.0018 13.6737 18.9106 13.8657 18.7464L20.05 13.4451V13.4463Z" fill="#E46F2C"/>
</svg>
