<svg width="21" height="21" viewBox="0 0 21 21" fill="none" xmlns="http://www.w3.org/2000/svg">
<path fill-rule="evenodd" clip-rule="evenodd" d="M14.4375 19.6875C15.8299 19.6875 17.1652 19.1344 18.1498 18.1498C19.1344 17.1652 19.6875 15.8299 19.6875 14.4375C19.6875 13.0451 19.1344 11.7098 18.1498 10.7252C17.1652 9.74062 15.8299 9.1875 14.4375 9.1875C13.0451 9.1875 11.7098 9.74062 10.7252 10.7252C9.74062 11.7098 9.1875 13.0451 9.1875 14.4375C9.1875 15.8299 9.74062 17.1652 10.7252 18.1498C11.7098 19.1344 13.0451 19.6875 14.4375 19.6875ZM21 14.4375C21 16.178 20.3086 17.8472 19.0779 19.0779C17.8472 20.3086 16.178 21 14.4375 21C12.697 21 11.0278 20.3086 9.79711 19.0779C8.5664 17.8472 7.875 16.178 7.875 14.4375C7.875 12.697 8.5664 11.0278 9.79711 9.79711C11.0278 8.5664 12.697 7.875 14.4375 7.875C16.178 7.875 17.8472 8.5664 19.0779 9.79711C20.3086 11.0278 21 12.697 21 14.4375Z" fill="#E46F2C"/>
<path d="M12.388 15.6765C12.4497 16.4588 13.0679 17.0678 14.177 17.1413V17.7188H14.6692V17.1373C15.8176 17.0573 16.4883 16.443 16.4883 15.5531C16.4883 14.742 15.9764 14.3246 15.0577 14.1094L14.6692 14.0175V12.4425C15.1627 12.4989 15.475 12.768 15.5498 13.1408H16.4135C16.3518 12.3861 15.7047 11.7968 14.6692 11.7324V11.1562H14.177V11.7469C13.1965 11.8427 12.5298 12.432 12.5298 13.2667C12.5298 14.0044 13.0259 14.4742 13.8515 14.6659L14.177 14.7459V16.4154C13.673 16.3393 13.3383 16.0611 13.2635 15.6765H12.3867H12.388ZM14.173 13.8994C13.6887 13.7878 13.4262 13.5581 13.4262 13.2142C13.4262 12.8284 13.7097 12.5396 14.177 12.4556V13.8994H14.173ZM14.74 14.8785C15.3293 15.015 15.5997 15.2355 15.5997 15.6253C15.5997 16.0702 15.2624 16.3748 14.6692 16.4312V14.8628L14.74 14.8785Z" fill="#E46F2C"/>
<path d="M1.3125 0C0.964403 0 0.630564 0.138281 0.384422 0.384422C0.138281 0.630564 0 0.964403 0 1.3125L0 11.8125C0 12.1606 0.138281 12.4944 0.384422 12.7406C0.630564 12.9867 0.964403 13.125 1.3125 13.125H6.67144C6.74756 12.6735 6.86175 12.2351 7.01006 11.8125H3.9375C3.9375 11.1163 3.66094 10.4486 3.16866 9.95634C2.67637 9.46406 2.00869 9.1875 1.3125 9.1875V3.9375C2.00869 3.9375 2.67637 3.66094 3.16866 3.16866C3.66094 2.67637 3.9375 2.00869 3.9375 1.3125H17.0625C17.0625 2.00869 17.3391 2.67637 17.8313 3.16866C18.3236 3.66094 18.9913 3.9375 19.6875 3.9375V8.568C20.1863 9.01425 20.6286 9.5235 21 10.0826V1.3125C21 0.964403 20.8617 0.630564 20.6156 0.384422C20.3694 0.138281 20.0356 0 19.6875 0L1.3125 0Z" fill="#E46F2C"/>
<path d="M13.1224 6.67116L13.125 6.56222C13.1247 6.11018 13.0077 5.66588 12.7853 5.27233C12.5629 4.87879 12.2427 4.54934 11.8556 4.3159C11.4685 4.08246 11.0277 3.95294 10.5758 3.93988C10.124 3.92682 9.67643 4.03066 9.2765 4.24135C8.87657 4.45205 8.53782 4.76245 8.29307 5.14249C8.04832 5.52253 7.90585 5.95934 7.87947 6.4106C7.8531 6.86187 7.9437 7.3123 8.14251 7.71827C8.34131 8.12424 8.64159 8.47199 9.01425 8.72785C10.1479 7.64801 11.5786 6.93178 13.1224 6.67116Z" fill="#E46F2C"/>
</svg>
