<svg width="30" height="31" viewBox="0 0 30 31" fill="none" xmlns="http://www.w3.org/2000/svg">
<path d="M12.4 0L23.7119 3.534C24.0274 3.63249 24.3031 3.82925 24.4989 4.09555C24.6946 4.36185 24.8001 4.68374 24.8 5.01425V7.75H27.9C28.3111 7.75 28.7053 7.9133 28.996 8.20399C29.2867 8.49467 29.45 8.88891 29.45 9.3V21.7C29.45 22.1111 29.2867 22.5053 28.996 22.796C28.7053 23.0867 28.3111 23.25 27.9 23.25L22.909 23.2516C22.3092 24.0421 21.5806 24.7395 20.739 25.313L12.4 31L4.061 25.3146C2.80941 24.4613 1.78522 23.3151 1.07747 21.9758C0.369719 20.6365 -0.000156895 19.1445 4.99252e-08 17.6297V5.01425C0.00018694 4.68401 0.105844 4.36246 0.301571 4.09647C0.497299 3.83048 0.772864 3.63396 1.0881 3.53555L12.4 0ZM12.4 3.2457L3.1 6.1535V17.6297C3.09978 18.5787 3.31739 19.515 3.73607 20.3666C4.15474 21.2182 4.76331 21.9623 5.5149 22.5416L5.80785 22.7525L12.4 27.249L18.2621 23.25H10.85C10.4389 23.25 10.0447 23.0867 9.75398 22.796C9.4633 22.5053 9.3 22.1111 9.3 21.7V9.3C9.3 8.88891 9.4633 8.49467 9.75398 8.20399C10.0447 7.9133 10.4389 7.75 10.85 7.75H21.7V6.1535L12.4 3.2457ZM12.4 15.5V20.15H26.35V15.5H12.4ZM12.4 12.4H26.35V10.85H12.4V12.4Z" fill="#ED5600"/>
</svg>
