<svg width="29" height="29" viewBox="0 0 29 29" fill="none" xmlns="http://www.w3.org/2000/svg">
<path d="M14.5 0C10.6544 0 6.96623 1.52767 4.24695 4.24695C1.52767 6.96623 0 10.6544 0 14.5C0 18.3456 1.52767 22.0338 4.24695 24.753C6.96623 27.4723 10.6544 29 14.5 29C18.3456 29 22.0338 27.4723 24.753 24.753C27.4723 22.0338 29 18.3456 29 14.5C29 10.6544 27.4723 6.96623 24.753 4.24695C22.0338 1.52767 18.3456 0 14.5 0V0ZM1.78833 15.5956H5.83222C5.89667 17.0617 6.10128 18.5181 6.44444 19.9456H2.96444C2.3155 18.5775 1.91716 17.1042 1.78833 15.5956V15.5956ZM15.5956 6.89556V1.91722C17.1482 2.50725 18.4239 3.65662 19.1722 5.13944C19.5025 5.6985 19.7941 6.28011 20.0422 6.87944L15.5956 6.89556V6.89556ZM20.7833 9.07056C21.1571 10.4932 21.3794 11.9512 21.4439 13.4206H15.5956V9.07056H20.7833V9.07056ZM13.4044 1.91722V6.89556H8.95778C9.20631 6.29573 9.49704 5.71428 9.82778 5.15556C10.5729 3.66665 11.8491 2.51118 13.4044 1.91722V1.91722ZM13.4044 9.07056V13.4206H7.57222C7.63667 11.9512 7.859 10.4932 8.23278 9.07056H13.4044V9.07056ZM5.83222 13.4044H1.78833C1.91716 11.8958 2.3155 10.4225 2.96444 9.05444H6.44444C6.10062 10.4813 5.89559 11.9381 5.83222 13.4044V13.4044ZM7.57222 15.5956H13.4044V19.9456H8.23278C7.85906 18.5231 7.63763 17.0649 7.57222 15.5956V15.5956ZM13.4206 22.04V27.0183C11.868 26.4283 10.5922 25.2789 9.84389 23.7961C9.51315 23.2374 9.22242 22.6559 8.97389 22.0561L13.4206 22.04V22.04ZM15.5956 27.0183V22.1206H20.0422C19.7937 22.7204 19.503 23.3018 19.1722 23.8606C18.4239 25.3434 17.1482 26.4927 15.5956 27.0828V27.0183V27.0183ZM15.5956 19.865V15.515H21.4278C21.3624 16.9843 21.1409 18.4425 20.7672 19.865H15.5956ZM23.1839 15.515H27.2278C27.099 17.0237 26.7006 18.497 26.0517 19.865H22.5556C22.8939 18.4633 23.0985 17.0343 23.1678 15.5956L23.1839 15.515V15.515ZM23.1839 13.34C23.1101 11.9002 22.8997 10.4706 22.5556 9.07056H26.0356C26.6848 10.44 27.0828 11.9126 27.2117 13.4206L23.1839 13.34ZM24.795 6.89556H21.9111C21.3893 5.42993 20.633 4.05875 19.6717 2.83556C21.6765 3.73549 23.418 5.13308 24.7306 6.89556H24.795V6.89556ZM9.32833 2.83556C8.36702 4.05875 7.61069 5.42993 7.08889 6.89556H4.26944C5.58205 5.13308 7.3235 3.73549 9.32833 2.83556V2.83556ZM4.25333 22.1689H7.08889C7.61069 23.6345 8.36702 25.0057 9.32833 26.2289C7.31795 25.3154 5.57597 23.9007 4.26944 22.1206L4.25333 22.1689V22.1689ZM19.6556 26.2289C20.6169 25.0057 21.3732 23.6345 21.895 22.1689H24.7306C23.4099 23.9078 21.6692 25.2826 19.6717 26.1644L19.6556 26.2289Z" fill="#ED5600"/>
</svg>
