<svg width="137" height="36" viewBox="0 0 137 36" fill="none" xmlns="http://www.w3.org/2000/svg">
<path d="M10.4004 15.3926L14.5068 0.382812H20.0576L13.1191 21H7.68164L0.799805 0.382812H6.30811L10.4004 15.3926ZM92.0001 13.3252L89.9611 15.5625V21H84.9908V0.382812H89.9611V9.47363L91.6886 6.854L96.1349 0.382812H102.28L95.3136 9.50195L102.28 21H96.3898L92.0001 13.3252Z" fill="#E46F2C"/>
<path d="M29.3156 14.8812H27.0537V21H22.8753V3.66734H29.6965C31.752 3.66734 33.359 4.12368 34.5177 5.03634C35.6764 5.949 36.2558 7.23863 36.2558 8.90523C36.2558 10.1115 36.0097 11.1115 35.5177 11.9051C35.0336 12.6987 34.2717 13.3416 33.2321 13.8336L36.851 20.8214V21H32.375L29.3156 14.8812ZM27.0537 11.6551H29.6965C30.4901 11.6551 31.0853 11.4488 31.4821 11.0361C31.8869 10.6155 32.0893 10.0322 32.0893 9.28617C32.0893 8.54017 31.8869 7.95686 31.4821 7.53624C31.0774 7.10769 30.4822 6.89341 29.6965 6.89341H27.0537V11.6551ZM44.7824 21H40.6159V3.66734H44.7824V21ZM58.1779 16.393C58.1779 15.782 57.9596 15.3058 57.5232 14.9645C57.0946 14.6233 56.3367 14.2701 55.2494 13.905C54.1622 13.54 53.2733 13.1868 52.5829 12.8456C50.3369 11.7424 49.214 10.2266 49.214 8.29812C49.214 7.33784 49.4917 6.49263 50.0473 5.7625C50.6107 5.02443 51.4043 4.45303 52.4281 4.04828C53.4519 3.6356 54.6026 3.42926 55.8804 3.42926C57.1263 3.42926 58.2414 3.65147 59.2255 4.0959C60.2175 4.54033 60.9873 5.17522 61.5349 6.00059C62.0825 6.81801 62.3563 7.75449 62.3563 8.81H58.1898C58.1898 8.10368 57.9715 7.55608 57.5351 7.16721C57.1065 6.77833 56.5232 6.5839 55.7851 6.5839C55.0391 6.5839 54.4479 6.75056 54.0114 7.08388C53.5828 7.40926 53.3686 7.82591 53.3686 8.33383C53.3686 8.77826 53.6066 9.183 54.0828 9.54807C54.559 9.9052 55.3962 10.2782 56.5946 10.6671C57.793 11.048 58.7771 11.4607 59.5469 11.9051C61.4198 12.9844 62.3563 14.4725 62.3563 16.3692C62.3563 17.885 61.7849 19.0755 60.6421 19.9405C59.4993 20.8056 57.9319 21.2381 55.9399 21.2381C54.5352 21.2381 53.2614 20.9881 52.1186 20.4881C50.9837 19.9802 50.1266 19.2897 49.5473 18.4168C48.9759 17.5358 48.6902 16.524 48.6902 15.3812H52.8805C52.8805 16.3097 53.1186 16.9962 53.5947 17.4406C54.0788 17.8771 54.8606 18.0954 55.9399 18.0954C56.6303 18.0954 57.174 17.9485 57.5708 17.6549C57.9755 17.3533 58.1779 16.9327 58.1779 16.393ZM80.5373 21H76.3827V13.7622H70.2282V21H66.0498V3.66734H70.2282V10.548H76.3827V3.66734H80.5373V21ZM114.688 17.762H108.962L107.962 21H103.498L109.855 3.66734H113.783L120.188 21H115.7L114.688 17.762ZM109.962 14.536H113.688L111.819 8.5243L109.962 14.536ZM129.453 14.8812H127.191V21H123.012V3.66734H129.833C131.889 3.66734 133.496 4.12368 134.655 5.03634C135.813 5.949 136.393 7.23863 136.393 8.90523C136.393 10.1115 136.147 11.1115 135.655 11.9051C135.171 12.6987 134.409 13.3416 133.369 13.8336L136.988 20.8214V21H132.512L129.453 14.8812ZM127.191 11.6551H129.833C130.627 11.6551 131.222 11.4488 131.619 11.0361C132.024 10.6155 132.226 10.0322 132.226 9.28617C132.226 8.54017 132.024 7.95686 131.619 7.53624C131.214 7.10769 130.619 6.89341 129.833 6.89341H127.191V11.6551ZM43.9196 35.17C43.3359 35.17 42.8061 35.0737 42.3301 34.881C41.8598 34.6883 41.4858 34.3937 41.2081 33.997C40.9361 33.5947 40.8029 33.0762 40.8086 32.4415H42.2026C42.2366 32.9572 42.4264 33.3453 42.7721 33.606C43.1234 33.8667 43.5598 33.997 44.0811 33.997C44.6364 33.997 45.1011 33.8865 45.4751 33.6655C45.8491 33.4445 46.0673 33.1045 46.1296 32.6455C46.2146 32.0278 45.9001 31.6255 45.1861 31.4385L43.5286 30.988C42.8769 30.818 42.3726 30.5517 42.0156 30.189C41.6643 29.8263 41.5339 29.3192 41.6246 28.6675C41.7266 27.8968 42.0808 27.2678 42.6871 26.7805C43.2934 26.2875 44.1264 26.041 45.1861 26.041C46.1041 26.041 46.8124 26.2563 47.3111 26.687C47.8154 27.1177 48.0223 27.7438 47.9316 28.5655H46.5716C46.5716 28.1462 46.4384 27.8147 46.1721 27.571C45.9114 27.3217 45.5261 27.197 45.0161 27.197C44.4891 27.197 44.0443 27.3103 43.6816 27.537C43.3189 27.758 43.1064 28.1037 43.0441 28.574C42.9988 28.8857 43.0809 29.1322 43.2906 29.3135C43.5059 29.4892 43.8346 29.6365 44.2766 29.7555L45.8746 30.1975C46.3733 30.3392 46.7473 30.5403 46.9966 30.801C47.2459 31.0617 47.4046 31.3478 47.4726 31.6595C47.5463 31.9712 47.5604 32.2715 47.5151 32.5605C47.4018 33.3708 47.0278 34.0083 46.3931 34.473C45.7641 34.9377 44.9396 35.17 43.9196 35.17ZM52.2524 35.17C51.4704 35.17 50.8074 34.9915 50.2634 34.6345C49.7251 34.2775 49.3369 33.7647 49.0989 33.096C48.8666 32.4273 48.8184 31.6255 48.9544 30.6905C49.0847 29.7668 49.3511 28.9565 49.7534 28.2595C50.1557 27.5625 50.6714 27.0185 51.3004 26.6275C51.9294 26.2365 52.6491 26.041 53.4594 26.041C54.6437 26.041 55.4937 26.4348 56.0094 27.2225C56.5307 28.0045 56.6951 29.0613 56.5024 30.393L56.4174 30.971H50.4589C50.3739 31.5263 50.3852 32.0307 50.4929 32.484C50.6062 32.9317 50.8187 33.2887 51.1304 33.555C51.4477 33.8213 51.8727 33.9545 52.4054 33.9545C52.9324 33.9545 53.4027 33.8242 53.8164 33.5635C54.2357 33.3028 54.5361 32.926 54.7174 32.433H56.1539C55.9669 33.028 55.6694 33.5295 55.2614 33.9375C54.8534 34.3455 54.3831 34.6543 53.8504 34.864C53.3234 35.068 52.7907 35.17 52.2524 35.17ZM50.6119 29.9085H55.0999C55.2076 29.1548 55.1169 28.5202 54.8279 28.0045C54.5389 27.4888 54.0204 27.231 53.2724 27.231C52.7567 27.231 52.3119 27.3642 51.9379 27.6305C51.5639 27.8912 51.2636 28.2283 51.0369 28.642C50.8159 29.05 50.6742 29.4722 50.6119 29.9085ZM57.4535 35L58.6945 26.211H60.1565L59.927 27.9025C60.2216 27.2735 60.6183 26.806 61.117 26.5C61.6156 26.194 62.1341 26.041 62.6725 26.041C62.7915 26.041 62.9048 26.0495 63.0125 26.0665C63.1258 26.0835 63.2136 26.1118 63.276 26.1515L63.0635 27.673C62.9898 27.6333 62.8906 27.6078 62.766 27.5965C62.647 27.5795 62.545 27.571 62.46 27.571C61.7913 27.5257 61.1991 27.6588 60.6835 27.9705C60.1735 28.2822 59.8675 28.8035 59.7655 29.5345L59.0005 35H57.4535ZM65.7302 35L63.9877 26.211H65.4327L66.6227 33.028H66.7587L69.9462 26.211H71.3742L67.0902 35H65.7302ZM72.8782 24.3495L73.1077 22.7175H74.6802L74.4507 24.3495H72.8782ZM71.4247 35L72.6657 26.211H74.1532L72.9207 35H71.4247ZM78.4146 35.17C77.2869 35.17 76.4199 34.7847 75.8136 34.014C75.2073 33.2377 75.0089 32.1128 75.2186 30.6395C75.3489 29.7272 75.6124 28.9253 76.0091 28.234C76.4114 27.5427 76.9271 27.0043 77.5561 26.619C78.1851 26.2337 78.9076 26.041 79.7236 26.041C80.6359 26.041 81.3584 26.3102 81.8911 26.8485C82.4238 27.3812 82.6816 28.0952 82.6646 28.9905H81.3046C81.2989 28.5315 81.1459 28.1377 80.8456 27.809C80.5509 27.4747 80.1203 27.3075 79.5536 27.3075C78.8509 27.3075 78.2361 27.5795 77.7091 28.1235C77.1878 28.6675 76.8478 29.5005 76.6891 30.6225C76.5418 31.6368 76.6296 32.45 76.9526 33.062C77.2756 33.6683 77.8309 33.9715 78.6186 33.9715C79.1853 33.9715 79.6641 33.8015 80.0551 33.4615C80.4518 33.1215 80.7153 32.7305 80.8456 32.2885H82.1801C82.0271 32.8778 81.7664 33.3878 81.3981 33.8185C81.0298 34.2492 80.5878 34.5835 80.0721 34.8215C79.5621 35.0538 79.0096 35.17 78.4146 35.17ZM86.8799 35.17C86.0979 35.17 85.4349 34.9915 84.8909 34.6345C84.3526 34.2775 83.9644 33.7647 83.7264 33.096C83.4941 32.4273 83.4459 31.6255 83.5819 30.6905C83.7123 29.7668 83.9786 28.9565 84.3809 28.2595C84.7833 27.5625 85.2989 27.0185 85.9279 26.6275C86.5569 26.2365 87.2766 26.041 88.0869 26.041C89.2713 26.041 90.1213 26.4348 90.6369 27.2225C91.1583 28.0045 91.3226 29.0613 91.1299 30.393L91.0449 30.971H85.0864C85.0014 31.5263 85.0128 32.0307 85.1204 32.484C85.2338 32.9317 85.4463 33.2887 85.7579 33.555C86.0753 33.8213 86.5003 33.9545 87.0329 33.9545C87.5599 33.9545 88.0303 33.8242 88.4439 33.5635C88.8633 33.3028 89.1636 32.926 89.3449 32.433H90.7814C90.5944 33.028 90.2969 33.5295 89.8889 33.9375C89.4809 34.3455 89.0106 34.6543 88.4779 34.864C87.9509 35.068 87.4183 35.17 86.8799 35.17ZM85.2394 29.9085H89.7274C89.8351 29.1548 89.7444 28.5202 89.4554 28.0045C89.1664 27.4888 88.6479 27.231 87.8999 27.231C87.3843 27.231 86.9394 27.3642 86.5654 27.6305C86.1914 27.8912 85.8911 28.2283 85.6644 28.642C85.4434 29.05 85.3018 29.4722 85.2394 29.9085ZM94.9216 35.17C94.3379 35.17 93.8081 35.0737 93.3321 34.881C92.8618 34.6883 92.4878 34.3937 92.2101 33.997C91.9381 33.5947 91.8049 33.0762 91.8106 32.4415H93.2046C93.2386 32.9572 93.4284 33.3453 93.7741 33.606C94.1254 33.8667 94.5618 33.997 95.0831 33.997C95.6384 33.997 96.1031 33.8865 96.4771 33.6655C96.8511 33.4445 97.0693 33.1045 97.1316 32.6455C97.2166 32.0278 96.9021 31.6255 96.1881 31.4385L94.5306 30.988C93.8789 30.818 93.3746 30.5517 93.0176 30.189C92.6663 29.8263 92.5359 29.3192 92.6266 28.6675C92.7286 27.8968 93.0828 27.2678 93.6891 26.7805C94.2954 26.2875 95.1284 26.041 96.1881 26.041C97.1061 26.041 97.8144 26.2563 98.3131 26.687C98.8174 27.1177 99.0243 27.7438 98.9336 28.5655H97.5736C97.5736 28.1462 97.4404 27.8147 97.1741 27.571C96.9134 27.3217 96.5281 27.197 96.0181 27.197C95.4911 27.197 95.0463 27.3103 94.6836 27.537C94.3209 27.758 94.1084 28.1037 94.0461 28.574C94.0008 28.8857 94.0829 29.1322 94.2926 29.3135C94.5079 29.4892 94.8366 29.6365 95.2786 29.7555L96.8766 30.1975C97.3753 30.3392 97.7493 30.5403 97.9986 30.801C98.2479 31.0617 98.4066 31.3478 98.4746 31.6595C98.5483 31.9712 98.5624 32.2715 98.5171 32.5605C98.4038 33.3708 98.0298 34.0083 97.3951 34.473C96.7661 34.9377 95.9416 35.17 94.9216 35.17Z" fill="black"/>
</svg>
