<svg width="144" height="41" viewBox="0 0 144 41" fill="none" xmlns="http://www.w3.org/2000/svg">
<path d="M17.935 0.373259L11.9862 18H6.76892L0.820198 0.373259H5.29393L9.37758 12.4414L13.449 0.373259H17.935ZM36.1597 18H31.2959L28.736 11.9294H26.2492V18H21.5073V0.373259H29.504C31.0318 0.373259 32.2589 0.625186 33.1853 1.12904C34.1199 1.63289 34.7985 2.31553 35.2211 3.17696C35.6436 4.03026 35.8549 4.98921 35.8549 6.0538C35.8549 7.40283 35.5949 8.46742 35.0748 9.24758C34.5547 10.0277 33.8842 10.6697 33.0634 11.1736L36.1597 18ZM28.9676 8.39428C29.5771 8.39428 30.0809 8.15454 30.4792 7.67507C30.8855 7.1956 31.0887 6.67143 31.0887 6.10256C31.0887 5.49306 30.8692 4.97295 30.4304 4.54224C29.9916 4.1034 29.504 3.88398 28.9676 3.88398H26.2492V8.39428H28.9676ZM40.4621 0.373259H45.204V18H40.4621V0.373259ZM57.2406 18.2438C56.3304 18.2438 55.4284 18.13 54.5344 17.9025C53.6486 17.6749 52.8319 17.3295 52.0842 16.8663C51.3447 16.4031 50.7352 15.8221 50.2557 15.1232C49.7763 14.4161 49.5 13.5872 49.4268 12.6364H54.2541C54.3922 13.254 54.7173 13.7376 55.2293 14.087C55.7412 14.4365 56.4036 14.6112 57.2162 14.6112C57.7038 14.6112 58.163 14.5624 58.5937 14.4649C59.0325 14.3674 59.3861 14.2048 59.6542 13.9773C59.9305 13.7416 60.0687 13.4166 60.0687 13.0021C60.0687 12.6445 59.9265 12.3682 59.642 12.1732C59.3657 11.9781 59.0041 11.8278 58.5571 11.7221C58.1183 11.6165 57.6551 11.523 57.1675 11.4418L54.4735 10.9786C53.1245 10.7591 52.0355 10.2147 51.2066 9.3451C50.3858 8.46742 49.9591 7.28093 49.9266 5.78562C49.9104 4.59913 50.2273 3.58736 50.8774 2.75031C51.5357 1.90514 52.4134 1.26313 53.5105 0.82429C54.6157 0.377323 55.8347 0.153839 57.1675 0.153839C58.7766 0.153839 60.1378 0.389513 61.2511 0.86086C62.3645 1.33221 63.2097 1.9864 63.7866 2.82345C64.3718 3.6605 64.6765 4.62351 64.7009 5.71248H59.9956C59.9224 5.02984 59.6502 4.54224 59.1788 4.24968C58.7156 3.95712 58.0777 3.81084 57.265 3.81084C56.3548 3.81084 55.7331 3.96525 55.3999 4.27406C55.0667 4.57475 54.9001 4.88356 54.9001 5.2005C54.9001 5.59871 55.0261 5.91971 55.278 6.16351C55.53 6.40731 56.0338 6.59829 56.7896 6.73644L59.4958 7.19966C60.7554 7.41908 61.7428 7.7604 62.4579 8.22362C63.1731 8.67871 63.6973 9.19476 64.0304 9.77175C64.3718 10.3487 64.5871 10.9217 64.6765 11.4905C64.7659 12.0594 64.8106 12.5633 64.8106 13.0021C64.8106 14.0017 64.4774 14.8997 63.811 15.6961C63.1528 16.4844 62.2548 17.1061 61.117 17.5612C59.9793 18.0163 58.6872 18.2438 57.2406 18.2438ZM79.7682 10.9298H73.6854V18H68.9435V0.373259H73.6854V7.05338H79.7682V0.373259H84.5101V18H79.7682V10.9298ZM105.49 18H100.395L96.4696 10.5641L94.2754 13.3922V18H89.3506V0.373259H94.2754V7.49222L99.3708 0.373259H104.698L99.8584 7.10214L105.49 18ZM108.335 18L114.576 0.373259H119.428L125.669 18H120.988L119.818 14.5868H114.259L113.065 18H108.335ZM115.259 10.5397H118.745L117.014 4.90794L115.259 10.5397ZM143.889 18H139.025L136.465 11.9294H133.978V18H129.236V0.373259H137.233C138.761 0.373259 139.988 0.625186 140.914 1.12904C141.849 1.63289 142.528 2.31553 142.95 3.17696C143.373 4.03026 143.584 4.98921 143.584 6.0538C143.584 7.40283 143.324 8.46742 142.804 9.24758C142.284 10.0277 141.613 10.6697 140.792 11.1736L143.889 18ZM136.697 8.39428C137.306 8.39428 137.81 8.15454 138.208 7.67507C138.615 7.1956 138.818 6.67143 138.818 6.10256C138.818 5.49306 138.598 4.97295 138.159 4.54224C137.721 4.1034 137.233 3.88398 136.697 3.88398H133.978V8.39428H136.697Z" fill="#E46F2C"/>
<path d="M8.86345 40.2238C7.89372 40.2238 6.99112 40.0634 6.15566 39.7426C5.32021 39.4219 4.61902 38.9519 4.0521 38.3328C3.49264 37.7062 3.13086 36.9416 2.96675 36.039H3.9514C4.1155 36.7701 4.43626 37.3817 4.91367 37.8741C5.39853 38.3664 5.9841 38.7356 6.67037 38.9818C7.35664 39.2279 8.08766 39.351 8.86345 39.351C9.78842 39.351 10.6015 39.213 11.3027 38.937C12.0039 38.6536 12.5521 38.2657 12.9475 37.7734C13.3503 37.281 13.5517 36.7178 13.5517 36.0838C13.5517 35.2185 13.3242 34.4987 12.8692 33.9243C12.4141 33.3499 11.6794 32.9359 10.6649 32.6823L7.12912 31.7871C5.95799 31.4888 5.05539 31.0412 4.42134 30.4444C3.78729 29.8402 3.47026 29.057 3.47026 28.0947C3.47026 27.2443 3.69031 26.4835 4.13042 25.8121C4.57053 25.1333 5.18594 24.6 5.97664 24.2121C6.7748 23.8167 7.70723 23.619 8.77393 23.619C9.9749 23.619 10.9745 23.8428 11.7726 24.2904C12.5783 24.7305 13.1825 25.2937 13.5853 25.98C13.9955 26.6662 14.197 27.3711 14.1895 28.0947H13.2048C13.1228 27.1996 12.858 26.4947 12.4104 25.98C11.9703 25.4578 11.4258 25.0886 10.7768 24.8722C10.1353 24.6484 9.45647 24.5366 8.74036 24.5366C8.26296 24.5366 7.77064 24.6074 7.26339 24.7492C6.75615 24.8834 6.2862 25.096 5.85356 25.3869C5.42091 25.6704 5.07031 26.0359 4.80177 26.4835C4.53323 26.9236 4.39896 27.4532 4.39896 28.0723C4.39896 28.7661 4.6414 29.333 5.12626 29.7731C5.61112 30.2132 6.47269 30.5974 7.71096 30.9256L11.1013 31.8207C12.347 32.1489 13.2235 32.7047 13.7307 33.4879C14.238 34.2711 14.4916 35.1215 14.4916 36.039C14.4916 36.7999 14.2827 37.4974 13.865 38.1314C13.4473 38.7655 12.8207 39.2727 11.9852 39.6531C11.1572 40.0336 10.1166 40.2238 8.86345 40.2238ZM24.0543 40V23.8204H33.3413V24.7156H24.9271V31.362H32.7595V32.2795H24.9271V39.0601L33.6546 39.0825V40H24.0543ZM54.1303 40H53.1233L49.856 32.3018H44.4181V40H43.5453V23.8204H49.2518C50.8183 23.8204 52.0379 24.1561 52.9107 24.8275C53.7834 25.4914 54.2198 26.4909 54.2198 27.8262C54.2198 28.7288 54.0408 29.471 53.6827 30.0528C53.3247 30.6347 52.8809 31.0897 52.3512 31.4179C51.8216 31.7387 51.2957 31.9662 50.7736 32.1004L54.1303 40ZM48.491 31.3843C50.05 31.3843 51.236 31.1233 52.0491 30.6011C52.8697 30.0715 53.2799 29.1987 53.2799 27.9828C53.2799 26.8266 52.9331 25.9949 52.2393 25.4876C51.5531 24.9729 50.5498 24.7156 49.2295 24.7156H44.4181V31.3843H48.491ZM74.2224 23.8204L68.3481 40H67.0501L61.3213 23.8204H62.2835L67.7103 39.0825L73.2825 23.8204H74.2224ZM82.7896 23.8204H83.6624V40H82.7896V23.8204ZM99.3673 23.5967C100.434 23.5967 101.374 23.8279 102.187 24.2904C103 24.7454 103.649 25.3422 104.134 26.0807C104.626 26.8191 104.917 27.6024 105.007 28.4304H104.022C103.88 27.7292 103.612 27.084 103.216 26.4947C102.828 25.8979 102.314 25.4205 101.672 25.0624C101.031 24.6969 100.262 24.5142 99.3673 24.5142C95.742 24.5142 93.9293 26.9907 93.9293 31.9438C93.9293 34.4278 94.3806 36.2777 95.2832 37.4936C96.1858 38.7021 97.5472 39.3063 99.3673 39.3063C100.262 39.3063 101.031 39.1272 101.672 38.7692C102.314 38.4111 102.828 37.9375 103.216 37.3482C103.612 36.7514 103.88 36.1024 104.022 35.4012H105.007C104.917 36.2218 104.626 37.0013 104.134 37.7398C103.642 38.4708 102.989 39.0676 102.176 39.5301C101.37 39.9925 100.434 40.2238 99.3673 40.2238C97.2712 40.2238 95.6749 39.5263 94.5783 38.1314C93.4892 36.7365 92.9447 34.674 92.9447 31.9438C92.9447 29.2136 93.4892 27.1399 94.5783 25.7226C95.6749 24.3053 97.2712 23.5967 99.3673 23.5967ZM114.298 40V23.8204H123.585V24.7156H115.17V31.362H123.003V32.2795H115.17V39.0601L123.898 39.0825V40H114.298ZM138.264 40.2238C137.294 40.2238 136.391 40.0634 135.556 39.7426C134.72 39.4219 134.019 38.9519 133.452 38.3328C132.893 37.7062 132.531 36.9416 132.367 36.039H133.352C133.516 36.7701 133.836 37.3817 134.314 37.8741C134.799 38.3664 135.384 38.7356 136.071 38.9818C136.757 39.2279 137.488 39.351 138.264 39.351C139.189 39.351 140.002 39.213 140.703 38.937C141.404 38.6536 141.952 38.2657 142.348 37.7734C142.751 37.281 142.952 36.7178 142.952 36.0838C142.952 35.2185 142.724 34.4987 142.269 33.9243C141.814 33.3499 141.08 32.9359 140.065 32.6823L136.529 31.7871C135.358 31.4888 134.456 31.0412 133.822 30.4444C133.187 29.8402 132.87 29.057 132.87 28.0947C132.87 27.2443 133.091 26.4835 133.531 25.8121C133.971 25.1333 134.586 24.6 135.377 24.2121C136.175 23.8167 137.107 23.619 138.174 23.619C139.375 23.619 140.375 23.8428 141.173 24.2904C141.978 24.7305 142.583 25.2937 142.985 25.98C143.396 26.6662 143.597 27.3711 143.59 28.0947H142.605C142.523 27.1996 142.258 26.4947 141.811 25.98C141.371 25.4578 140.826 25.0886 140.177 24.8722C139.535 24.6484 138.857 24.5366 138.141 24.5366C137.663 24.5366 137.171 24.6074 136.664 24.7492C136.156 24.8834 135.686 25.096 135.254 25.3869C134.821 25.6704 134.471 26.0359 134.202 26.4835C133.933 26.9236 133.799 27.4532 133.799 28.0723C133.799 28.7661 134.042 29.333 134.526 29.7731C135.011 30.2132 135.873 30.5974 137.111 30.9256L140.501 31.8207C141.747 32.1489 142.624 32.7047 143.131 33.4879C143.638 34.2711 143.892 35.1215 143.892 36.039C143.892 36.7999 143.683 37.4974 143.265 38.1314C142.847 38.7655 142.221 39.2727 141.385 39.6531C140.557 40.0336 139.517 40.2238 138.264 40.2238Z" fill="black"/>
</svg>
